<svg xmlns="http://www.w3.org/2000/svg" viewBox="0 0 2153.88 877.09"><defs><style>.cls-1{fill:#fff;}.cls-2{fill:#191d4a;}</style></defs><g id="Layer_2" data-name="Layer 2"><g id="Layer_1-2" data-name="Layer 1"><circle class="cls-1" cx="1705.82" cy="435.68" r="423.6"/><path class="cls-2" d="M1275,409.73a28,28,0,0,0-2.46,2.78c-35,50.83-84,81.74-142.16,99.35-33.79,10.24-68.44,14.6-103.67,12-11.53-.86-23-3.7-34.26-6.44-19.41-4.71-38.66-10.07-58-15.1-2.2-.57-4.5-.72-7.46-1.18-.19,3.43-.5,6.34-.49,9.26,0,66-.17,132,.23,198,.09,14.61,1.62,29.27,3.51,43.78,2.92,22.42,15.5,37.47,37.65,42.79,16.78,4,33.94,6.6,51,9.45,9.1,1.53,18.34,2.28,27.89,3.43v33.63h-524V807.8c8-1.09,15.84-2,23.66-3.28,12.49-2,25.09-3.59,37.39-6.43,30.79-7.14,43.44-21.66,46.63-53,1.18-11.58,2.08-23.25,2.1-34.89q.32-127,.16-254c0-2.9-.38-5.8-.62-9.2H216.43c-.23,3.44-.6,6.35-.6,9.26,0,85-.12,170,.3,255a304.73,304.73,0,0,0,4.05,44.67c3.14,20.34,15.25,34.26,35.22,39.17,19.65,4.84,39.81,7.67,59.75,11.33,2.9.54,5.85.84,10,1.41.8,11.12.31,21.89.26,33.37H.81A40.71,40.71,0,0,1,0,836.05c-.07-9,0-17.94,0-28,8.94-1.2,17.4-2.15,25.8-3.49,12.16-1.94,24.44-3.47,36.37-6.38,28.25-6.88,41-20.79,44.18-49.62a521.12,521.12,0,0,0,3.08-56.83q.34-245.48,0-491c0-19-1.67-37.92-2.91-56.86-.33-4.92-1.73-9.83-3-14.63C99,112.59,88.83,100.52,72.22,95.75,57.57,91.53,42.43,89,27.4,86.22,18.65,84.61,9.7,84,.47,83V50.53c7.14-2.08,311-2.7,324.28-.63v33C315.2,84,306,84.81,296.85,86.09,287,87.47,277,88.7,267.31,91c-31.4,7.42-44.56,22-48.8,54a241.72,241.72,0,0,0-2.35,30.86c-.28,70.66-.27,141.33-.34,212,0,2,.26,3.93.39,5.77,7.61,2.24,405,2.68,416.49.38v-9.63q0-95,0-190c0-18.68-.65-37.28-4-55.74-4.52-24.52-18.39-40.56-42.69-46-17.17-3.83-34.78-5.73-52.2-8.42-3.55-.55-7.15-.77-11.11-1.18V49.29c3.91-.18,7.17-.45,10.42-.46q245.49,0,491,.05c43.77,0,87.21,3.58,129.55,15.67,28.41,8.12,55.22,19.77,78.91,37.68,42.19,31.89,66.36,74.73,75.57,126.36,1.87,10.44,2.85,21,5.11,32.06,35.54-75.5,87.08-137.15,155.54-184.68C1528.2,34.67,1622.9,1.81,1699.14.13,1783.2-1.73,1861.38,16.87,1933.38,59c182.13,106.68,263.95,321,197.71,516.89C2063.87,774.71,1874.55,894.71,1671.85,875c-116.61-11.34-214.42-63.34-290.71-153.11S1271.86,527.4,1275,409.73Zm523.77,10.65.22,1.43c-3.85,1.19-8,3.95-11.48,3.27-8-1.57-16.17-2.85-23.57-7.41s-9.6-3-13.4,5c-2.87,6-5.84,7.27-11.91,4.2-5.34-2.7-10.46-5.87-15.6-9-15.7-9.43-12.45-7.57-10.23-21.92-2.8-3.69-6.87-3.09-10.81-2.7-5.31.54-10.59,1.66-15.9,1.72a33.54,33.54,0,0,0-18,5.06c-5.1,3.21-10.24,4.59-16,1.8a7.84,7.84,0,0,0-10,2.05c-5.62,6.55-11.74,12.85-13.56,21.79s-6.57,15.35-13.42,21.46c-10.28,9.15-18.43,20.05-17.44,35.34a76.89,76.89,0,0,1-3.58,29.5c-3.24,9.87-2.55,19.74,7.3,26.83a18.34,18.34,0,0,1,5.73,8c4.63,11.81,13.88,19.27,23.69,26.3a10.56,10.56,0,0,0,11.23,1.21c2.85-1.2,6.67-1.9,9.47-1,4.61,1.48,8.45.61,12.51-1.13,3.68-1.57,7.52-2.79,11.1-4.55,4.92-2.42,9.22-1.78,12.48,2.46s6.9,6.42,12.75,5.69c5.5-.68,8.17,1.9,8.55,7.39.34,4.92,1.14,10.73-1,14.69-4.45,8.31-1.55,14.8,2.56,21.44,3.51,5.66,7.6,11,11.18,16.56,4,6.34,4.79,13,1.24,19.93-2.13,4.14-4.24,8.32-6.06,12.6-2.29,5.39-3.57,11.13.27,16.22,10.52,14,14.59,30.48,19.14,46.85,5,18.13,5.15,18.29,24.13,15.46,6.17-.92,13.51-1.36,18-4.93,14.71-11.75,27.42-25.86,32.14-44.63,2.24-8.87,5.63-15.3,13.82-19.14a18.2,18.2,0,0,0,3.29-2.27c13.57-10.58,16.9-24.21,9.09-39.38-3.46-6.73-3.56-12.95-1.21-20.12,4.52-13.73,14.39-23,24.82-31.88a50.46,50.46,0,0,0,14.47-20c4.24-10.49,8.81-20.84,12.87-31.39.81-2.13,0-4.87,0-7.33-2.46.08-5.08-.36-7.36.33-4.74,1.45-9.17,4.07-14,5.18-7.69,1.77-10.77-.25-14.26-7.31-1.44-2.93-2.77-6.58-5.25-8.21-8.16-5.32-10.94-14.14-14.82-22-5.74-11.57-10.12-23.8-15.11-35.73-1.41-3.38-3.35-6.61-4.22-10.11-.46-1.86.87-4.16,1.4-6.27,2,.63,4.64.69,6,2,1.82,1.74,2.72,4.47,4,6.79,6.42,12,12.13,24.39,19.49,35.75,4.56,7,9.28,13.65,11.39,21.92,1.3,5.06,2.63,10.33,7.74,14.26,9.14-3.23,16.45-9.62,24.38-14.94a84.31,84.31,0,0,0,33.34-42.41c.6-1.66.85-4.61-.11-5.49-6-5.55-9.85-13.55-17.71-16.44-.92.2-1.31.17-1.54.36a47.55,47.55,0,0,0-3.78,3.13c-5.53,5.36-7.18,5.37-11.9-.22-3.87-4.57-7.8-9.1-11.4-13.88-2.09-2.79-5.61-6.43-1.68-9.52,3.66-2.86,5.65,1.51,7.74,3.93,4.81,5.54,10.79,9.61,18.18,8.56,5.3-.75,8.83,1,12.8,3.7,5.37,3.71,11.15,5.39,17.88,2.84,4.83-1.83,10.11-2.47,14.74-3.54,5.47,5.87,9.64,13.36,16,16.37,8,3.82,9,9.52,10.11,16.5,2.47,15.91,6.92,31.22,14.81,45.37a70,70,0,0,0,4.18,6l2.13-.39a80.13,80.13,0,0,0,1.63-8.19c.68-7,.64-14,1.8-20.9a67.64,67.64,0,0,1,5-16c4-9.09,9-17.79,13.08-26.86,2.59-5.74,5.61-10.86,12.31-11.79,4-.55,10.08,6.74,11.73,13.59.83,3.46,1.17,7.05,1.85,11.31,7-1.94,8.71,1.72,8.78,7.32.06,5,.75,10,.6,15-.45,14.63,3.56,28.33,8.3,41.89.47,1.34,1.93,2.34,2.86,3.43,4.67-2.3,3.53-5.87,2.94-9-.8-4.24-2.09-8.4-3.16-12.6-1.65-6.45-3.45-12.86-4.84-19.36-.69-3.22-1-6.76,4-8l9.18,10.3c5.1-11,9.18-20.56,6.42-31.61-2-8.06-4-16.17-6.76-24-2.16-6.18-.51-10.37,3.5-15.31,4.91-6.07,10.13-12.89,12-20.21,3.58-13.9,4-28.37-.95-42.38-4.16-11.82-8.33-23.62-12.91-36.6-.34-.08-2.78,0-4-1.12-1.94-1.87-4.51-4.84-4.16-6.89a11.24,11.24,0,0,1,5.55-7.25c1.4-.67,5.22,1.92,6.84,3.93,2.48,3.06,3.88,7,6,10.36.92,1.49,2.45,2.6,5.39,5.61-.14-8.52-3-13.56-6.2-18.45-5.24-8-8.47-17.26-7.88-26.39.53-8.36-1.35-15.74-3.2-23.45-1.31-5.47-1.63-11.28-3.64-16.45-4.32-11.13-6.45-24-20.31-28.64-2.26-.75-4.36-3.08-5.73-5.2-4.14-6.41-7.5-13.34-11.9-19.54-3.8-5.36-6.6-10.16-.58-15.73-2-3.57-4-6.67-5.64-9.89-.9-1.72-2.53-4.23-1.92-5.37,3.06-5.73-1-9-4-12.15-12.47-12.93-25.19-25.62-38-38.26-2-2-4.73-3.36-7.23-5.1-3.2,7.69-5.27,9-12.6,8.46-3.05-.24-6.09-.56-11.32-1,2.69,3.56,4.21,4.9,4.81,6.57s.88,4.25,0,5.14a5.88,5.88,0,0,1-5.28.87c-3.65-1.52-7-3.86-10.49-5.7-.77-.39-1.91,0-3.33,0-.42,2.57-.82,5-1.19,7.2-10,1.48-18.42.34-24.47-8a4.34,4.34,0,0,0-1.49-1.31c-10.23-4.92-21.54-7.25-31.31-13.25-6.48,1.44-11.54-2-16.84-4.79-2.42-1.26-4.85-3.8-8.4-.94,3.91,6.27,8.57,10.61,16.41,11.39a80.52,80.52,0,0,1,17.44,3.94c6.65,2.22,7.11,5.89,2,11-.47.47-1.1.77-1.58,1.23-6,5.73-6.15,6.92-1.65,14.18a11.28,11.28,0,0,1,.77,3l-5.94,3.9,3.74,8-10.3,4.91c-2.39-4.9-4.28-8.71-6.12-12.55-3.11-6.49-8.19-10.25-15.25-11.62-5-1-10-2.34-17.43-4.11-2.22,2.63-5.55,6.79-9.12,10.73-4.3,4.74-2.09,10.81-3.51,15.73-2.83,9.81,3.07,12.54,9.07,16.19,1.42.87,3.06,1.39,4.41,2.34,4.46,3.17,4.73,8.41.41,11.64-1.78,1.33-4.14,1.88-5.27,2.37-4.93-.41-4.76-7.63-10.54-5.52,1.31,3.69,2.49,7,4.12,11.64l-12.22-2c.48,3.77.84,6.58,1.19,9.31-7.49,1.95-8,2.22-11-3.12-4.88-8.53-11.49-13.31-21.57-13.82-3.38-.16-6.8-2.54-9.9-4.41a17.26,17.26,0,0,0-16.35-1.15A64.52,64.52,0,0,0,1728.94,192c-5.21,5.44-8.54,12.64-12.88,18.94-4.89,7.11-9.23,14.81-15.19,20.9-7.57,7.74-7.34,16.8-6.85,26.05.29,5.6,4,7.25,9.16,5.14,9-3.68,9.25-3.56,12.58,5.38a30.36,30.36,0,0,0,1.28,3.77c3.66,6.63,8.4,7.32,13.32,1.69,5.41-6.2,8.76-13.3,8.45-21.82-.2-5.65-.28-11.32-.12-17,.07-2.54.6-5.25,3.89-5.67.5.54.8.73.92,1a4.51,4.51,0,0,1,.64,1.84c-.44,8,.35,14.88,8.53,19.58,4.14,2.37,3.48,9.29.3,13.38-2,2.59-4.42,5.05-5.72,8-2.19,4.94-3.78,10-10,11.46-5.13,1.23-10.11,3.67-15.27,4.06-7,.52-9.4-2.46-9.39-9.5,0-1.33.65-2.91.13-3.93-.94-1.86-2.41-4.59-3.88-4.74-1.63-.15-4.28,1.81-5.08,3.51a11.84,11.84,0,0,0-.83,7.65c1.77,6.25-1.08,9-6.27,11.62-3.39,1.68-6.26,4.78-8.81,7.72-5.84,6.73-11,14-20.32,16.72-3.66,1-6.85,3.73-11.27,6.25,2.28,3.35,4.61,6.09,6.15,9.21,1.86,3.78,4,7.82,4.31,11.87.51,6.91-2.74,9.53-9.67,9.23-4-.17-8-.51-12-.93-3.52-.38-6.19.81-6.55,4.43-.88,8.94-2,17.92-1.84,26.86.09,6.28,5.31,9.71,11.81,9.4,10.84-.52,19.31-4.57,23.42-15.41,1.06-2.79,3-5.26,3.92-8.08,4.5-13.95,18-13.8,28.51-18.26,1.11-.48,3.47,1.36,5,2.51,4.72,3.65,9.15,7.71,14,11.2,5.29,3.82,9.94,7.77,10.25,15,.06,1.31,1.58,2.56,2.42,3.83,9.93-6.43,10.67-14.57,2.32-20.79-2.39-1.78-5.25-2.95-7.6-4.78a20.3,20.3,0,0,1-5.39-5.71c-.76-1.37-.6-4.24.37-5.29s3.46-.61,5.25-.43c.85.09,1.56,1.2,2.41,1.7,11.75,6.8,14.88,20.88,24.69,29.35.75.65.3,2.57.66,3.82.51,1.77,1.25,3.46,1.84,5,10.77-.63,4.4-11.86,11.52-15.89,2,2.24,4.37,4.3,5.84,6.9,1.62,2.85,2.12,6.31,3.53,9.32,3,6.51,5.92,7.09,12.6,4.1a33.79,33.79,0,0,1,12.26-3.19c6.72-.23,10,3.2,9.68,9.87-.4,8.71-3.32,16.69-8,24.26ZM926.47,456.94a45.14,45.14,0,0,0,5.07,2.83,128.68,128.68,0,0,0,12.24,4.29c40.24,10.78,81,13.18,121.66,3.89C1129,453.43,1171.07,415,1189,351.82a257.92,257.92,0,0,0,2.92-132.46c-14.31-59.5-51.12-99-109.47-118-23.32-7.61-47.37-10.69-71.82-11-18-.21-35.93,1.23-53.47,5.83-15.38,4-25.3,13.54-27.62,29.37a260.26,260.26,0,0,0-2.95,36.76q-.36,142-.14,284Zm617.89-325.82c2.27.88,3.16,1.42,4.09,1.53,1.32.14,2.68-.21,4-.06,5.36.61,7.14,2.78,6.15,7.89a33.12,33.12,0,0,1-2.53,7.56c-1.84,3.88-5.6,7.56-5.73,11.41-.36,11.31-6.29,19.08-13.5,26.75-5.81,6.18-9.71,13.47-8.67,22.57.25,2.24-.48,4.61-.88,6.9-1.79,10.21-.9,11.74,7.57,17.18,3.65,2.34,6.34,1.83,8.61-1.22s3.88-7,6.4-10.1c5-6.11,10-12.42,16-17.54,3.29-2.84,9-2.73,12.73-5.21a52.56,52.56,0,0,1,23.22-8.29c7-.87,13.4-3.76,15.28-10.94-1.27-5.3-9-3.74-8-10.46l8.74-1.88c1-2.92,1.83-5.32,2.77-8.07l9.85,2c4.8-7.4,9.55-14.23,13.72-21.39,1.8-3.08,1.83-7.22,3.71-10.23,2.36-3.79,5.62-7.08,8.8-10.28a99.22,99.22,0,0,1,8.15-6.65c-6.87-8.11-13,1.45-19.77-1.19l6.37-7.56c-4.68-6.61-9.26-12.16-18.16-9.13-6.86,2.33-13.79,4.46-20.69,6.68-5.22,1.68-18.26-.87-20.8-4.24.23-2.31.47-4.81.77-7.85-11.25-2.36-22-3.51-32.94-2.62-5.35.44-7.49,3.86-7.38,9.49.11,6-.39,6.32-8.13,4.16.29-2.4.59-4.88,1.07-8.82l-14.32,8.28c-3.23-7.09-9.57-9-15.82-9-5.82,0-11.57,2.74-17.45,3.56-7.71,1.06-8.49,8.53-12.94,13.42-7.56-4.53-13.15-.08-18.69,4.27-2.09,1.65-3.82,3.73-5.92,5.37-4.59,3.57-7.88,3.42-14.87-.82,3.93-5.32,7.84-10.59,11.74-15.86a5.65,5.65,0,0,0-4.44,1.21,408.71,408.71,0,0,0-52.1,49.53,23.7,23.7,0,0,0-2.81,4.11c-7.31,13.06-14.51,26.17-21.87,39.19-19.68,34.83-39,69.82-52.41,107.71-8.67,24.49-13.16,49.56-10.89,75.6.23,2.65-.16,6,1.27,7.78,5.56,7.07,3.85,15.14,4.16,23a156.66,156.66,0,0,0,1.21,16.94c1.52,10,4.5,20.34,12.16,26.83,9.52,8.06,15,18,17.95,29.28,3.66,13.84,9.32,26.18,19,36.84,6.43,7.08,8.13,15.87,6.72,25.25a84.66,84.66,0,0,1-1.85,9.8c-3.63,13.16-2.73,25.67,4.43,37.58,8.91,14.84,17.82,29.69,26.4,44.72q14.6,25.59,28.54,51.53c6.3,11.73,11.43,24.11,18.09,35.61a183.74,183.74,0,0,0,55.2,59.71c2.59,1.79,5.49,3.15,8.24,4.71-2.3-4.48-5.48-7.38-8.62-10.32a50.56,50.56,0,0,1-14.91-25.53c-.53-2.19-1.46-5.47-.41-6.66,4.12-4.68,1.45-9.23.25-13.72,8.27-7.25,11.46-15.3,7.63-25.95-2.72-7.56-1.12-9.42,6.36-11.27,12.25-3,13.06-3.87,14.87-16.44,2-13.85,3.42-27.81,6-41.54,1.82-9.54-.69-17.51-7-23.84a144,144,0,0,0-22.29-18.25c-7.17-4.73-15.38-7.89-23.18-11.63-3.37-1.62-6.83-3-6.67-7.65.34-9.77-4.79-17.38-10.76-24.07-11.52-12.92-23.65-25.29-35.68-37.74-1.78-1.85-4.28-3.09-6.61-4.29a128,128,0,0,0-12.51-5.85c-6.88-2.65-13.66-7.28-21.2-1.07-3.52,2.91-7.41,1.79-9.19-2.12a77.39,77.39,0,0,1-5.69-16.8c-1.43-7.25-3-14.16-7-20.62-2.13-3.45-2.7-8.05-3.26-12.22-.47-3.59.26-7.33.1-11s-.35-7.38-5.25-9l-8.77,9.8c-1.9-4-3.68-6.69-4.42-9.61-2.63-10.45-3.69-21.12-1.1-31.67a74,74,0,0,1,6.51-16.64c2.66-5,4.51-4.85,9.39-1.38a12.78,12.78,0,0,0,5.87,2.62c7,.55,9.09,1.48,10.27,7.83,1.09,5.86,1,11.92,1.62,17.88.21,2.06.8,4.09,1.67,8.42,2.36-3.71,4.15-5.37,4.47-7.27a48,48,0,0,0,.89-12.9c-1.36-13,2.73-22.83,14.53-29.21,4.83-2.62,7.36-7.12,9.74-12.17a62,62,0,0,1,11.3-16.05c5.49-5.74,11.91-10.62,18.17-15.56,1.57-1.24,5-2.46,6-1.67,5.24,4.25,9.57.95,13.84-1.18s8.88-4.63,9.94-10c-.36-.65-.46-1.13-.69-1.2-5.88-1.89-8.82-5.61-7.53-12,1.24-6.09,5.36-8.7,11.16-9.8a130.73,130.73,0,0,0,13.48-3.72c8.06-2.45,9-3.34,9.14-11.85.18-13-.1-26-.33-39,0-2.17-.79-4.33-1.29-6.9l-11.55,2.65c1.12-5.6,2.32-10,2.78-14.41.35-3.42.87-9.23-.63-9.95-3.07-1.48-7.5-.6-11.26,0-1.73.28-3.26,2.1-4.76,3.37-11.76,9.9-18.87,23.11-25.88,36.41-1.43,2.71-1.43,6.86-6.5,7.07-.53-.89-1.63-1.9-1.72-3-.78-9.62-1.49-19.25-1.93-28.89a12,12,0,0,1,1.75-5.64c6.85-13.09,18.6-21.12,30-30.28l3.33,9.35a30.61,30.61,0,0,0,4.34-.64c1.26-.38,2.37-1.27,3.64-1.64,10.29-2.94,16.37,1.48,17.09,12.07.16,2.42,1.29,4.77,1.94,7,14.28.07,15.56-10.21,17.34-20.25,2,.67,3.24,1,4.36,1.45,1.42.61,2.76,1.37,4,2,7.8-7.55,7.64-7.48,3.52-16.14-1-2.12-1.57-5.43-.61-7.32,2.37-4.67,2-8.84.2-13.43a11.12,11.12,0,0,1-.14-5.82c1.14-5.68,2.57-11.3,3.45-15.05,6.26-5.32,11.38-9.82,16.68-14.09a72.93,72.93,0,0,1,9-6.15c3.15-1.83,6.82-2.87,9.78-5,7.16-5,15.46-5,25.09-7.09-3.72,7.44-8.29,10.35-14.86,10.35-4.5,0-8.89.62-11.29,5C1547.81,122.47,1546.38,126.51,1544.36,131.12ZM738,444.3h-.1q0,121,0,242c0,13.34-.42,26.73.69,40a229.38,229.38,0,0,0,6.12,38.34c4,15.22,14.8,25,29.68,29.93a17.76,17.76,0,0,0,10.41-.07c17.74-5.88,28.74-18.54,31.34-36.75A394.34,394.34,0,0,0,820.32,703q.46-253,.2-506c0-8,.36-16.06-.47-24-1.57-14.87-3-29.86-6.14-44.43-3.38-15.51-13.25-26.53-28.3-32.65a15.66,15.66,0,0,0-12.43,0c-17.49,6.73-27.83,19.7-30.67,37.66a329.45,329.45,0,0,0-4.36,49.65C737.73,270.31,738,357.31,738,444.3Z"/></g></g></svg>